<svg width="32" height="32" viewBox="0 0 32 32" fill="none" xmlns="http://www.w3.org/2000/svg">
<g id="Check">
<path id="Vector" d="M28.7076 9.70751L12.7076 25.7075C12.6147 25.8005 12.5044 25.8742 12.383 25.9246C12.2616 25.9749 12.1315 26.0008 12.0001 26.0008C11.8687 26.0008 11.7385 25.9749 11.6171 25.9246C11.4957 25.8742 11.3854 25.8005 11.2926 25.7075L4.29257 18.7075C4.10493 18.5199 3.99951 18.2654 3.99951 18C3.99951 17.7346 4.10493 17.4801 4.29257 17.2925C4.48021 17.1049 4.7347 16.9994 5.00007 16.9994C5.26543 16.9994 5.51993 17.1049 5.70757 17.2925L12.0001 23.5863L27.2926 8.29251C27.4802 8.10487 27.7347 7.99945 28.0001 7.99945C28.2654 7.99945 28.5199 8.10487 28.7076 8.29251C28.8952 8.48015 29.0006 8.73464 29.0006 9.00001C29.0006 9.26537 28.8952 9.51987 28.7076 9.70751Z" fill="white"/>
</g>
</svg>
