<svg width="20" height="20" viewBox="0 0 20 20" fill="none" xmlns="http://www.w3.org/2000/svg">
<g id="Leading icon">
<g id="Union">
<path d="M10.0005 12.5C11.3812 12.5 12.5005 11.3807 12.5005 10C12.5005 8.61929 11.3812 7.5 10.0005 7.5C8.61978 7.5 7.50049 8.61929 7.50049 10C7.50049 11.3807 8.61978 12.5 10.0005 12.5Z" fill="#94A3B8"/>
<path fill-rule="evenodd" clip-rule="evenodd" d="M0.664743 10.5904C0.51788 10.2087 0.518007 9.78563 0.665098 9.40408C2.10927 5.65788 5.74378 3 9.99908 3C14.2565 3 17.8925 5.66051 19.3352 9.40962C19.4821 9.79127 19.4819 10.2144 19.3348 10.5959C17.8907 14.3421 14.2562 17 10.0009 17C5.74346 17 2.10746 14.3395 0.664743 10.5904ZM14.0009 10C14.0009 12.2091 12.21 14 10.0009 14C7.79172 14 6.00086 12.2091 6.00086 10C6.00086 7.79086 7.79172 6 10.0009 6C12.21 6 14.0009 7.79086 14.0009 10Z" fill="#94A3B8"/>
</g>
</g>
</svg>
