<svg width="49" height="18" viewBox="0 0 49 18" fill="none" xmlns="http://www.w3.org/2000/svg">
<g id="Geld">
<path d="M8.16695 8.63261H15.7555V15.0753C14.2205 16.5671 11.8856 17.3454 9.16146 17.3454C3.86461 17.3454 0.535156 14.297 0.535156 9.38931C0.535156 4.48161 3.86461 1.4116 8.83716 1.4116C11.6045 1.4116 13.7016 2.25477 15.1718 3.61682L13.2476 5.7788C12.2098 4.87077 10.6316 4.28703 8.85878 4.28703C5.76715 4.28703 3.71327 6.25444 3.71327 9.38931C3.71327 12.6323 5.85363 14.5348 9.26956 14.5348C10.6316 14.5348 11.8639 14.297 12.8801 13.5403V11.3135H8.16695V8.63261Z" fill="black"/>
<path d="M29.49 11.1405C29.49 11.3351 29.49 11.7891 29.4684 12.0269H20.3016C20.6259 13.7781 21.8366 14.7726 23.7824 14.7726C25.166 14.7726 26.3984 14.2538 27.1983 13.2593L29.0792 14.8591C27.9982 16.3509 26.2686 17.2805 23.5662 17.2805C19.6097 17.2805 17.2748 14.8591 17.2748 11.0973C17.2748 7.35705 19.8043 4.91401 23.4148 4.91401C27.4793 4.91401 29.49 7.50838 29.49 11.1405ZM23.4148 7.40029C21.9014 7.40029 20.6907 8.15698 20.3232 9.86494H26.5713C26.3983 8.56775 25.4687 7.40029 23.4148 7.40029Z" fill="black"/>
<path d="M31.4358 17.0427V0.654907H34.4193V17.0427H31.4358Z" fill="black"/>
<path d="M42.322 17.3022C38.8628 17.3022 36.6144 14.9024 36.6144 11.1189C36.6144 7.33543 38.8845 4.95725 42.1923 4.95725C43.403 4.95725 44.8515 5.30316 45.8244 6.25444V0.654907H48.7647V17.0427H45.8677V15.8969C44.938 17.0211 43.4679 17.3022 42.322 17.3022ZM42.9706 14.6213C44.0948 14.6213 45.2623 14.1673 45.8677 13.0647V9.15149C45.2623 8.1786 44.0516 7.6381 42.9057 7.6381C41.0248 7.6381 39.6844 8.89205 39.6844 11.1189C39.6844 13.3025 40.9816 14.6213 42.9706 14.6213Z" fill="black"/>
</g>
</svg>
